<svg xmlns="http://www.w3.org/2000/svg" width="32" height="32" viewBox="0 0 32 32"><g transform="translate(-992 -2108)"><rect width="32" height="32" transform="translate(992 2108)" fill="#1f2122" opacity="0"/><g transform="translate(970 2108)"><g transform="translate(22 0)"><g transform="translate(0 0)"><path d="M.272,1.584a.927.927,0,0,1,0-1.312h0a.927.927,0,0,1,1.312,0h0L16.677,15.363a.928.928,0,0,1,0,1.312h0a.929.929,0,0,1-1.311,0h0L.272,1.584Z" transform="translate(0 0)" fill="#1f2122"/><g transform="translate(0.002 15.05)"><path d="M1.587,32.94a.928.928,0,0,1-1.313,0h0a.928.928,0,0,1,0-1.312h0L15.366,16.534a.927.927,0,0,1,1.311,0h0a.928.928,0,0,1,0,1.312h0L1.587,32.94Z" transform="translate(-0.002 -16.264)" fill="#1f2122"/></g></g><g transform="translate(15.05)"><g transform="translate(0.002 15.051)"><path d="M32.942,31.627a.927.927,0,0,1,0,1.312h0a.927.927,0,0,1-1.312,0h0L16.537,17.849a.928.928,0,0,1,0-1.312h0a.927.927,0,0,1,1.311,0h0L32.942,31.627Z" transform="translate(-16.266 -16.264)" fill="#1f2122"/></g><path d="M31.627.271a.928.928,0,0,1,1.313,0h0a.928.928,0,0,1,0,1.312h0L17.848,16.678a.929.929,0,0,1-1.311,0h0a.928.928,0,0,1,0-1.312h0L31.627.271Z" transform="translate(-16.264 0)" fill="#1f2122"/></g></g></g></g></svg>