<svg xmlns="http://www.w3.org/2000/svg" width="750" height="750" viewBox="0 0 750 750"><g transform="translate(-143 -164)"><rect width="750" height="750" rx="116" transform="translate(143 164)" fill="#16161a"/><g transform="translate(-1202 -2606)"><rect width="644" height="644" rx="101.684" transform="translate(1398 2823)" fill="#16161a"/><path d="M1719.7,3214.817a148.288,148.288,0,0,0,62.368-22.4,148.98,148.98,0,0,0,68.832-125.7v-.088a2.5,2.5,0,0,0-4.615-1.316A149.011,149.011,0,0,1,1720,3135.2q-3.253,0-6.471.139a148.619,148.619,0,0,0-103.884,48.739c-.212.241-.424.475-.635.708a149.281,149.281,0,0,0-32.532,139.586,148.857,148.857,0,0,1,129.82-108.208Z" fill="#fff"/><path d="M1786.422,3093.01a148.308,148.308,0,0,1-84.3,25.384l-.006,0a193.6,193.6,0,0,1,59.943-261.16,2.5,2.5,0,0,1,3.576,3.291,207.185,207.185,0,0,0-22.457,62.854q-1.172,6.288-1.935,12.7a209.238,209.238,0,0,0,45.182,156.933Z" fill="#fff"/><path d="M1869,3284.2a149.217,149.217,0,0,1-3.513,32.283v.008q-.876,3.987-1.965,7.881a149.053,149.053,0,0,1-278.053,23.949v-.007a149.217,149.217,0,0,1,74.325-98.64,69.006,69.006,0,0,0-8.8,27.259,68.18,68.18,0,0,0-.38,7.267,69.381,69.381,0,1,0,108.755-57.146q5.017-1.423,9.875-3.184a149.24,149.24,0,0,0,60.3-40.676A148.639,148.639,0,0,1,1869,3284.2Z" fill="#fff"/><path d="M1766.171,3273.239l-8.125-1.033a39.883,39.883,0,0,0-2.459-5.938l5.018-6.46a6.43,6.43,0,0,0-.528-8.553l-6.806-6.806a6.441,6.441,0,0,0-8.578-.549l-6.456,5.017a40.737,40.737,0,0,0-5.942-2.458l-1.033-8.108a6.473,6.473,0,0,0-6.422-5.7h-9.68a6.472,6.472,0,0,0-6.422,5.691l-1.033,8.125a40.742,40.742,0,0,0-5.942,2.459l-6.456-5.022a6.434,6.434,0,0,0-8.552.527l-6.807,6.807a6.442,6.442,0,0,0-.548,8.582l5.013,6.457a40.7,40.7,0,0,0-2.459,5.937l-8.107,1.033a6.472,6.472,0,0,0-5.705,6.422v9.68a6.486,6.486,0,0,0,5.692,6.43l8.124,1.033a39.851,39.851,0,0,0,2.459,5.938l-5.017,6.461a6.428,6.428,0,0,0,.527,8.552l6.806,6.806a6.447,6.447,0,0,0,8.578.545l6.457-5.018a40.821,40.821,0,0,0,5.937,2.459l1.033,8.107a6.473,6.473,0,0,0,6.422,5.705h9.68a6.48,6.48,0,0,0,6.426-5.692l1.033-8.124a40,40,0,0,0,5.938-2.459l6.46,5.017a6.425,6.425,0,0,0,8.553-.527l6.806-6.806a6.437,6.437,0,0,0,.549-8.578l-5.018-6.457a40.7,40.7,0,0,0,2.459-5.937l8.107-1.033a6.473,6.473,0,0,0,5.705-6.422v-9.68A6.478,6.478,0,0,0,1766.171,3273.239ZM1720,3302.034a17.529,17.529,0,1,1,17.529-17.529A17.529,17.529,0,0,1,1720,3302.034Z" fill="#7f5af0"/></g></g></svg>