<svg xmlns="http://www.w3.org/2000/svg" width="32" height="32" viewBox="0 0 32 32"><g transform="translate(-931 -2103)"><rect width="32" height="32" transform="translate(931 2103)" fill="#fff" opacity="0"/><g transform="translate(931 2109)"><path d="M25.167,23.432H5.8a.8.8,0,1,1,0-1.6H25.167a.8.8,0,1,1,0,1.6Z" transform="translate(6.033 -21.83)" fill="#fff"/><path d="M5.754,47.879H36.246a.8.8,0,0,1,0,1.6H5.754a.8.8,0,0,1,0-1.6Z" transform="translate(-5 -38.664)" fill="#fff"/><path d="M5.754,73.93H36.246a.8.8,0,0,1,0,1.6H5.754a.8.8,0,0,1,0-1.6Z" transform="translate(-5 -55.5)" fill="#fff"/></g></g></svg>