<svg xmlns="http://www.w3.org/2000/svg" width="24" height="32" viewBox="0 0 24 32"><path d="M36.9,5.5H18.985C17.321,5.5,15.5,6.627,15.5,8.288V30.365a3.768,3.768,0,0,0,3.485,3.364h2.246V37.5L24.3,34.479,27.679,37.5V33.729H36.9c1.664,0,2.6-1.7,2.6-3.364V8.288A2.5,2.5,0,0,0,36.9,5.5Zm.455,2.788V25.51H19.44V7.644H36.9C37.451,7.644,37.351,7.734,37.351,8.288Zm-.455,23.3H27.679V29.441H21.231v2.144H18.985a1.54,1.54,0,0,1-1.336-1.22V27.654h19.7v2.711C37.351,30.919,37.451,31.585,36.9,31.585Z" transform="translate(-15.5 -5.5)" fill="#2292e5"/><g transform="translate(5.911 4.114)"><path d="M33.789,17.179A.179.179,0,0,0,33.61,17H32.179a.179.179,0,0,0-.179.179V18.61a.179.179,0,0,0,.179.179H33.61a.179.179,0,0,0,.179-.179Z" transform="translate(-32 -17)" fill="#2292e5"/></g><g transform="translate(5.911 8.039)"><path d="M33.789,28.179A.179.179,0,0,0,33.61,28H32.179a.179.179,0,0,0-.179.179V29.61a.179.179,0,0,0,.179.179H33.61a.179.179,0,0,0,.179-.179Z" transform="translate(-32 -28)" fill="#2292e5"/></g><g transform="translate(5.911 11.97)"><path d="M33.789,39.179A.179.179,0,0,0,33.61,39H32.179a.179.179,0,0,0-.179.179V40.61a.179.179,0,0,0,.179.179H33.61a.179.179,0,0,0,.179-.179Z" transform="translate(-32 -39)" fill="#2292e5"/></g><g transform="translate(5.911 15.9)"><path d="M33.789,50.179A.179.179,0,0,0,33.61,50H32.179a.179.179,0,0,0-.179.179V51.61a.179.179,0,0,0,.179.179H33.61a.179.179,0,0,0,.179-.179Z" transform="translate(-32 -50)" fill="#2292e5"/></g></svg>