<svg xmlns="http://www.w3.org/2000/svg" width="44" height="44" viewBox="0 0 44 44"><path d="M22,.5C9.845.5,0,10.6,0,23.058a22.513,22.513,0,0,0,15.043,21.4c1.1.212,1.5-.486,1.5-1.085,0-.536-.018-1.955-.028-3.836-6.12,1.36-7.41-3.026-7.41-3.026a5.945,5.945,0,0,0-2.447-3.3c-1.993-1.4.154-1.37.154-1.37a4.624,4.624,0,0,1,3.37,2.324c1.962,3.449,5.15,2.452,6.407,1.877a4.854,4.854,0,0,1,1.393-3.017c-4.886-.564-10.021-2.5-10.021-11.147a8.825,8.825,0,0,1,2.264-6.053,8.21,8.21,0,0,1,.193-5.971s1.843-.6,6.05,2.313a20.246,20.246,0,0,1,11,0c4.18-2.917,6.022-2.313,6.022-2.313a8.438,8.438,0,0,1,.22,5.971,8.862,8.862,0,0,1,2.255,6.053c0,8.666-5.142,10.573-10.038,11.128a5.476,5.476,0,0,1,1.485,4.174c0,3.019-.028,5.444-.028,6.177,0,.591.385,1.3,1.512,1.071A22.439,22.439,0,0,0,44,23.058C44,10.6,34.149.5,22,.5Z" transform="translate(0 -0.5)" fill="#4d5057"/></svg>