<svg xmlns="http://www.w3.org/2000/svg" width="48" height="48" viewBox="0 0 48 48"><g transform="translate(20 -79)"><g transform="translate(-20 79)"><path d="M43,42H5a5.006,5.006,0,0,1-5-5V13A5.006,5.006,0,0,1,5,8H17v2H5a3,3,0,0,0-3,3V37a3,3,0,0,0,3,3H43a3,3,0,0,0,3-3V13a3,3,0,0,0-3-3H31V8H43a5.006,5.006,0,0,1,5,5V37A5.006,5.006,0,0,1,43,42Z" fill="#fcc230"/><rect width="20" height="2" transform="translate(14 46)" fill="#fcc230"/><rect width="2" height="6" transform="translate(17 41)" fill="#fcc230"/><rect width="2" height="6" transform="translate(29 41)" fill="#fcc230"/><path d="M28,26H20a1,1,0,0,1-1-1V7a1,1,0,0,1,1-1h8a1,1,0,0,1,1,1V25A1,1,0,0,1,28,26Zm-7-2h6V8H21Z" fill="#fcc230"/><path d="M29,7H27c0-1.051-1.583-3.107-3-4.587C22.584,3.894,21,5.951,21,7H19C19,4.488,22.592.957,23.313.274a1,1,0,0,1,1.375,0C25.408.957,29,4.488,29,7Z" fill="#fcc230"/><path d="M33,26H28V24h4v-.586l-4.707-4.707,1.414-1.414,5,5A1,1,0,0,1,34,23v2A1,1,0,0,1,33,26Z" fill="#fcc230"/><path d="M20,26H15a1,1,0,0,1-1-1V23a1,1,0,0,1,.293-.707l5-5,1.414,1.414L16,23.414V24h4Z" fill="#fcc230"/><rect width="4" height="2" transform="translate(24 10)" fill="#fcc230"/><rect width="8" height="2" transform="translate(20 20)" fill="#fcc230"/><path d="M24,37a1,1,0,0,1-.744-.332C22.712,36.062,20,32.941,20,31a4,4,0,0,1,8,0c0,1.941-2.712,5.062-3.256,5.668A1,1,0,0,1,24,37Zm0-8a2,2,0,0,0-2,2c0,.62.938,2.119,2,3.451,1.061-1.326,2-2.814,2-3.451A2,2,0,0,0,24,29Z" fill="#fcc230"/><rect width="2" height="3" transform="translate(23 28)" fill="#fcc230"/><rect width="14" height="2" transform="translate(5 33)" fill="#fcc230"/><rect width="14" height="2" transform="translate(29 33)" fill="#fcc230"/><path d="M6,17H4V15a3,3,0,0,1,3-3H9v2H7a1,1,0,0,0-1,1Z" fill="#fcc230"/><rect width="2" height="2" transform="translate(4 19)" fill="#fcc230"/><path d="M44,17H42V15a1,1,0,0,0-1-1H39V12h2a3,3,0,0,1,3,3Z" fill="#fcc230"/><rect width="2" height="2" transform="translate(42 19)" fill="#fcc230"/></g></g></svg>