<svg xmlns="http://www.w3.org/2000/svg" width="56.1" height="42.043" viewBox="0 0 56.1 42.043"><g transform="translate(-5.2 -10.7)"><g transform="translate(5.2 10.7)"><path d="M56.4,52.743H10.23a5.036,5.036,0,0,1-5.03-5.03V15.73a5.036,5.036,0,0,1,5.03-5.03H56.27a5.036,5.036,0,0,1,5.03,5.03V47.713A5.01,5.01,0,0,1,56.4,52.743ZM10.23,12.506A3.193,3.193,0,0,0,7.006,15.73V47.713a3.193,3.193,0,0,0,3.224,3.224H56.27a3.193,3.193,0,0,0,3.224-3.224V15.73a3.193,3.193,0,0,0-3.224-3.224H10.23Z" transform="translate(-5.2 -10.7)" fill="#304784"/><path d="M56.27,44.661H10.359A5.174,5.174,0,0,1,5.2,39.5a.882.882,0,0,1,.9-.9.862.862,0,0,1,.9.774,3.442,3.442,0,0,0,3.353,3.482H56.141A3.414,3.414,0,0,0,59.494,39.5a.882.882,0,0,1,.9-.9.862.862,0,0,1,.9.774V39.5A5.149,5.149,0,0,1,56.27,44.661Z" transform="translate(-5.2 -2.619)" fill="#304784"/><path d="M8.6,13.5a.882.882,0,0,0,.9.9h1.934a.9.9,0,0,0,0-1.806H9.5a.882.882,0,0,0-.9.9Zm0,0" transform="translate(-4.215 -10.15)" fill="#304784"/><path d="M37.7,13.5a.882.882,0,0,0,.9.9h2.063a.9.9,0,1,0,0-1.806H38.732a1,1,0,0,0-1.032.9Zm0,0" transform="translate(4.214 -10.15)" fill="#304784"/><path d="M42.1,13.5a.882.882,0,0,0,.9.9h1.934a.9.9,0,1,0,0-1.806H43a.882.882,0,0,0-.9.9Zm0,0" transform="translate(5.488 -10.15)" fill="#304784"/><path d="M5.9,15.6a.882.882,0,0,0,.9.9H59.421a.9.9,0,1,0,0-1.806H6.8a.882.882,0,0,0-.9.9Zm0,0" transform="translate(-4.997 -9.541)" fill="#304784"/></g><path d="M23.5,32.075h2.063v7.093a2.564,2.564,0,0,0,2.45,2.579h3.1V40.071l-3.1.129c-.516,0-.774-.387-.774-.9V23.95a.862.862,0,0,1,.774-.9h2.708V21.5H27.885a2.449,2.449,0,0,0-2.45,2.45v6.706H23.5Z" transform="translate(5.301 3.128)" fill="#304784"/><path d="M26.41,36.9H11.192A2.149,2.149,0,0,1,9,34.833v-8.77A2.037,2.037,0,0,1,11.063,24H26.281a2.037,2.037,0,0,1,2.063,2.063v8.77A1.862,1.862,0,0,1,26.41,36.9ZM11.192,25.548a.412.412,0,0,0-.387.387V34.7a.412.412,0,0,0,.387.387H26.41A.412.412,0,0,0,26.8,34.7v-8.77a.412.412,0,0,0-.387-.387Z" transform="translate(1.101 3.852)" fill="#304784"/><path d="M47.516,25.738H30.363A2.013,2.013,0,0,1,28.3,23.8V19.934A2.013,2.013,0,0,1,30.363,18H47.516a2.013,2.013,0,0,1,2.063,1.934V23.8A2.013,2.013,0,0,1,47.516,25.738Zm-17.152-6.19a.342.342,0,0,0-.387.387V23.8a.412.412,0,0,0,.387.387H47.516A.342.342,0,0,0,47.9,23.8V19.934a.412.412,0,0,0-.387-.387Z" transform="translate(6.691 2.114)" fill="#304784"/><path d="M47.716,41.738H30.563A2.013,2.013,0,0,1,28.5,39.8V35.934A2.013,2.013,0,0,1,30.563,34H47.716a2.013,2.013,0,0,1,2.063,1.934V39.8A1.933,1.933,0,0,1,47.716,41.738Zm-17.152-6.19a.342.342,0,0,0-.387.387V39.8a.412.412,0,0,0,.387.387H47.716A.342.342,0,0,0,48.1,39.8V35.934a.412.412,0,0,0-.387-.387Z" transform="translate(6.749 6.749)" fill="#304784"/><path d="M47.516,33.8H30.363A2.037,2.037,0,0,1,28.3,31.732V27.863A2.037,2.037,0,0,1,30.363,25.8H47.516a2.037,2.037,0,0,1,2.063,2.063v3.869A2.037,2.037,0,0,1,47.516,33.8ZM30.363,27.477a.342.342,0,0,0-.387.387v3.869a.412.412,0,0,0,.387.387H47.516a.342.342,0,0,0,.387-.387V27.863a.412.412,0,0,0-.387-.387Z" transform="translate(6.691 4.374)" fill="#304784"/><line x2="4.033" transform="translate(31.768 34.559)" fill="none" stroke="#304784" stroke-linecap="round" stroke-linejoin="round" stroke-miterlimit="10" stroke-width="1.263"/></g></svg>